<svg xmlns:xlink="http://www.w3.org/1999/xlink" xmlns="http://www.w3.org/2000/svg" viewBox="0 0 1800 1360" width="1800" height="1360" preserveAspectRatio="xMidYMid meet" style="width: 100%; height: 100%; transform: translate3d(0px, 0px, 0px);"><defs><clipPath id="__lottie_element_39"><rect width="1800" height="1360" x="0" y="0"></rect></clipPath><clipPath id="__lottie_element_53"><path d="M0,0 L1800,0 L1800,1360 L0,1360z"></path></clipPath><linearGradient id="__lottie_element_77" spreadMethod="pad" gradientUnits="userSpaceOnUse"><stop></stop><stop></stop><stop></stop></linearGradient><mask id="__lottie_element_79"><path fill="url(#__lottie_element_78)"></path></mask><linearGradient id="__lottie_element_78" spreadMethod="pad" gradientUnits="userSpaceOnUse"><stop stop-color="rgb(255,255,255)"></stop><stop stop-color="rgb(255,255,255)"></stop><stop stop-color="rgb(255,255,255)"></stop><stop stop-color="rgb(255,255,255)"></stop></linearGradient><linearGradient id="__lottie_element_77" spreadMethod="pad" gradientUnits="userSpaceOnUse"><stop></stop><stop></stop><stop></stop></linearGradient></defs><g clip-path="url(#__lottie_element_39)"><g style="display: none;"><g><path fill="url(&quot;#__lottie_element_77&quot;)" mask="url(#__lottie_element_79)"></path></g></g><g transform="matrix(0.9998741745948792,-0.015862248837947845,0.015862248837947845,0.9998741745948792,621.649169921875,377.0673828125)" opacity="1" style="display: block;"><g opacity="1" transform="matrix(1,0,0,1,346.2799987792969,388.6549987792969)"><path fill="#FFB4BC" fill-opacity="1" d=" M306.4649963378906,165.8699951171875 C306.4649963378906,165.8699951171875 254.2949981689453,130.46800231933594 254.2949981689453,130.46800231933594 C254.2949981689453,130.46800231933594 232.47799682617188,115.57099914550781 230.28399658203125,65.88999938964844 C228.09100341796875,16.207000732421875 232.0760040283203,-23.917999267578125 199.23699951171875,-88.73699951171875 C166.3979949951172,-153.5570068359375 180.88600158691406,-285.3940124511719 180.88600158691406,-285.3940124511719 C180.88600158691406,-285.3940124511719 196.12600708007812,-352.92498779296875 172.90899658203125,-359.6300048828125 C149.69200134277344,-366.3340148925781 140.94400024414062,-345.59100341796875 128.14999389648438,-307.5880126953125 C115.35700225830078,-269.5849914550781 111.10900115966797,-134.58999633789062 68.43099975585938,-160.68600463867188 C25.753000259399414,-186.781005859375 -202.875,-301.98699951171875 -202.875,-301.98699951171875 C-202.875,-301.98699951171875 -232.65499877929688,-323.0570068359375 -258.739990234375,-341.5119934082031 C-273.281005859375,-351.79901123046875 -321.4670104980469,-387.9859924316406 -334.23199462890625,-388.63299560546875 C-348.73699951171875,-389.36700439453125 -349.91900634765625,-372.27099609375 -336.6789855957031,-343.8009948730469 C-323.43798828125,-315.3320007324219 -219.91099548339844,-155.59800720214844 -219.91099548339844,-155.59800720214844 C-219.91099548339844,-155.59800720214844 -226.0780029296875,-109.53399658203125 -226.0780029296875,-109.53399658203125 C-226.0780029296875,-109.53399658203125 -263.33099365234375,-159.25599670410156 -263.33099365234375,-159.25599670410156 C-263.33099365234375,-159.25599670410156 -309.9389953613281,-147.3470001220703 -309.9389953613281,-147.3470001220703 C-309.9389953613281,-147.3470001220703 -259.385986328125,-102.8759994506836 -259.385986328125,-102.8759994506836 C-259.385986328125,-102.8759994506836 -278.27899169921875,-47.58700180053711 -278.27899169921875,-47.58700180053711 C-278.27899169921875,-47.58700180053711 -311.0820007324219,-47.922000885009766 -311.0820007324219,-47.922000885009766 C-311.0820007324219,-47.922000885009766 -255.9239959716797,-12.637999534606934 -255.9239959716797,-12.637999534606934 C-255.9239959716797,-12.637999534606934 -235.07699584960938,-42.32699966430664 -235.07699584960938,-42.32699966430664 C-235.07699584960938,-42.32699966430664 -241.51499938964844,5.764999866485596 -241.51499938964844,5.764999866485596 C-241.51499938964844,5.764999866485596 -288.7619934082031,-10.006999969482422 -288.7619934082031,-10.006999969482422 C-288.7619934082031,-10.006999969482422 -328.82501220703125,-12.958999633789062 -342.2650146484375,10.21399974822998 C-355.7049865722656,33.387001037597656 -331.0989990234375,43.71200180053711 -331.0989990234375,43.71200180053711 C-331.0989990234375,43.71200180053711 -299.0610046386719,68.54100036621094 -254.33799743652344,101.53099822998047 C-254.33799743652344,101.53099822998047 -256.39599609375,116.9020004272461 -256.39599609375,116.9020004272461 C-256.39599609375,116.9020004272461 -54.111000061035156,259.7659912109375 21.054000854492188,271.0469970703125 C35.672000885009766,273.2409973144531 46.284000396728516,274.7720031738281 53.902000427246094,275.8169860839844 C64.98400115966797,277.9729919433594 72.49099731445312,281.35198974609375 77.03299713134766,283.9840087890625 C77.03299713134766,283.9840087890625 82.19499969482422,287.5350036621094 82.19499969482422,287.5350036621094 C82.43099975585938,287.739013671875 82.5530014038086,287.8550109863281 82.5530014038086,287.8550109863281 C82.677001953125,287.9159851074219 82.78600311279297,287.9670104980469 82.90699768066406,288.0249938964844 C82.90699768066406,288.0249938964844 229.18800354003906,388.6549987792969 229.18800354003906,388.6549987792969 C334.968994140625,310.1210021972656 346.2799987792969,191.11599731445312 346.2799987792969,191.11599731445312 C346.2799987792969,191.11599731445312 306.4649963378906,165.8699951171875 306.4649963378906,165.8699951171875z"></path></g></g><g transform="matrix(0.9998741745948792,-0.015862248837947845,0.015862248837947845,0.9998741745948792,646.9979858398438,270.7528991699219)" opacity="1" style="display: block;"><g opacity="1" transform="matrix(1,0,0,1,228.7239990234375,389.8810119628906)"><path fill="#3F1C1F" fill-opacity="1" d=" M183.80999755859375,-351.82501220703125 C183.80999755859375,-351.82501220703125 -77.33100128173828,-389.34100341796875 -77.33100128173828,-389.34100341796875 C-105.94999694824219,-393.4519958496094 -132.48500061035156,-373.5840148925781 -136.5959930419922,-344.9639892578125 C-136.5959930419922,-344.9639892578125 -228.18499755859375,292.55999755859375 -228.18499755859375,292.55999755859375 C-232.29600524902344,321.17999267578125 -212.42799377441406,347.7149963378906 -183.80799865722656,351.8269958496094 C-183.80799865722656,351.8269958496094 77.33200073242188,389.3420104980469 77.33200073242188,389.3420104980469 C105.9520034790039,393.4549865722656 132.48699951171875,373.58599853515625 136.59800720214844,344.96600341796875 C136.59800720214844,344.96600341796875 228.18600463867188,-292.5589904785156 228.18600463867188,-292.5589904785156 C232.29800415039062,-321.1789855957031 212.42999267578125,-347.7130126953125 183.80999755859375,-351.82501220703125z"></path></g></g><g transform="matrix(0.9998741745948792,-0.015862248837947845,0.015862248837947845,0.9998741745948792,648.2015380859375,261.3226318359375)" opacity="1" style="display: block;"><g opacity="1" transform="matrix(1,0,0,1,228.7220001220703,389.87799072265625)"><path fill="#F13C4E" fill-opacity="1" d=" M183.81100463867188,-351.8280029296875 C183.81100463867188,-351.8280029296875 -77.3290023803711,-389.343994140625 -77.3290023803711,-389.343994140625 C-105.94999694824219,-393.4549865722656 -132.48300170898438,-373.5870056152344 -136.5959930419922,-344.9670104980469 C-136.5959930419922,-344.9670104980469 -228.1840057373047,292.5570068359375 -228.1840057373047,292.5570068359375 C-232.2949981689453,321.1780090332031 -212.427001953125,347.7130126953125 -183.8070068359375,351.8240051269531 C-183.8070068359375,351.8240051269531 77.33200073242188,389.3389892578125 77.33200073242188,389.3389892578125 C105.9540023803711,393.45098876953125 132.48899841308594,373.5840148925781 136.5989990234375,344.9630126953125 C136.5989990234375,344.9630126953125 228.18800354003906,-292.5610046386719 228.18800354003906,-292.5610046386719 C232.2989959716797,-321.1820068359375 212.43099975585938,-347.71600341796875 183.81100463867188,-351.8280029296875z"></path></g></g><g transform="matrix(0.9998741745948792,-0.015862248837947845,0.015862248837947845,0.9998741745948792,669.421142578125,282.62872314453125)" opacity="1" style="display: block;"><g opacity="1" transform="matrix(1,0,0,1,207.84800720214844,368.23699951171875)"><path fill="#BB4D58" fill-opacity="1" d=" M183.58999633789062,-329.593994140625 C183.58999633789062,-329.593994140625 140.36099243164062,-335.8039855957031 140.36099243164062,-335.8039855957031 C140.36099243164062,-335.8039855957031 139.98399353027344,-333.1830139160156 139.98399353027344,-333.1830139160156 C138.38600158691406,-322.0660095214844 128.0780029296875,-314.34698486328125 116.95999908447266,-315.94500732421875 C116.95999908447266,-315.94500732421875 -23.291000366210938,-336.093994140625 -23.291000366210938,-336.093994140625 C-34.40999984741211,-337.6910095214844 -42.12799835205078,-347.99798583984375 -40.529998779296875,-359.11700439453125 C-40.529998779296875,-359.11700439453125 -40.15399932861328,-361.73699951171875 -40.15399932861328,-361.73699951171875 C-40.15399932861328,-361.73699951171875 -83.38400268554688,-367.947998046875 -83.38400268554688,-367.947998046875 C-98.83899688720703,-370.1679992675781 -113.16699981689453,-359.4389953613281 -115.38800048828125,-343.9840087890625 C-115.38800048828125,-343.9840087890625 -207.5570068359375,297.5889892578125 -207.5570068359375,297.5889892578125 C-209.77699279785156,313.04400634765625 -199.0489959716797,327.37200927734375 -183.593994140625,329.5929870605469 C-183.593994140625,329.5929870605469 83.37999725341797,367.9460144042969 83.37999725341797,367.9460144042969 C98.83399963378906,370.1659851074219 113.16300201416016,359.43701171875 115.38300323486328,343.9830017089844 C115.38300323486328,343.9830017089844 207.55299377441406,-297.5899963378906 207.55299377441406,-297.5899963378906 C209.7740020751953,-313.0450134277344 199.04400634765625,-327.3739929199219 183.58999633789062,-329.593994140625z"></path></g></g><g transform="matrix(0.9998741745948792,-0.015862248837947845,0.015862248837947845,0.9998741745948792,902.5830078125,294.26171875)" opacity="1" style="display: block;"><g opacity="1" transform="matrix(1,0,0,1,24.733999252319336,6.010000228881836)"><path fill="#FFFFFF" fill-opacity="1" d=" M22.474000930786133,0.3580000102519989 C22.474000930786133,0.3580000102519989 -21.663999557495117,-5.982999801635742 -21.663999557495117,-5.982999801635742 C-23.104000091552734,-6.190000057220459 -24.440000534057617,-5.190000057220459 -24.645999908447266,-3.749000072479248 C-24.645999908447266,-3.749000072479248 -24.70599937438965,-3.3369998931884766 -24.70599937438965,-3.3369998931884766 C-24.913000106811523,-1.8960000276565552 -23.913000106811523,-0.5600000023841858 -22.472000122070312,-0.3540000021457672 C-22.472000122070312,-0.3540000021457672 21.663999557495117,5.986999988555908 21.663999557495117,5.986999988555908 C23.104999542236328,6.193999767303467 24.44099998474121,5.195000171661377 24.648000717163086,3.755000114440918 C24.648000717163086,3.755000114440918 24.70599937438965,3.3399999141693115 24.70599937438965,3.3399999141693115 C24.913000106811523,1.899999976158142 23.913000106811523,0.5649999976158142 22.474000930786133,0.3580000102519989z"></path></g></g><g transform="matrix(0.9998741745948792,-0.015862248837947845,0.015862248837947845,0.9998741745948792,968.1375122070312,300.1426086425781)" opacity="1" style="display: block;"><g opacity="1" transform="matrix(1,0,0,1,5.831999778747559,5.800000190734863)"><path fill="#FFFFFF" fill-opacity="1" d=" M1.2760000228881836,-5.616000175476074 C1.2760000228881836,-5.616000175476074 0.35600000619888306,-5.749000072479248 0.35600000619888306,-5.749000072479248 C-2.5460000038146973,-6.164999961853027 -5.238999843597412,-4.150000095367432 -5.656000137329102,-1.246000051498413 C-5.656000137329102,-1.246000051498413 -5.7769999504089355,-0.4009999930858612 -5.7769999504089355,-0.4009999930858612 C-6.195000171661377,2.502000093460083 -4.178999900817871,5.193999767303467 -1.2760000228881836,5.611000061035156 C-1.2760000228881836,5.611000061035156 -0.3569999933242798,5.743000030517578 -0.3569999933242798,5.743000030517578 C2.546999931335449,6.159999847412109 5.238999843597412,4.144999980926514 5.656000137329102,1.2410000562667847 C5.656000137329102,1.2410000562667847 5.7769999504089355,0.3959999978542328 5.7769999504089355,0.3959999978542328 C6.193999767303467,-2.507999897003174 4.177999973297119,-5.198999881744385 1.2760000228881836,-5.616000175476074z"></path></g></g><g transform="matrix(0.9998741745948792,-0.015862248837947845,0.015862248837947845,0.9998741745948792,623.9893798828125,556.7958984375)" opacity="1" style="display: block;"><g opacity="1" transform="matrix(1,0,0,1,64.1729965209961,125.99099731445312)"><path fill="#FFB4BC" fill-opacity="1" d=" M7.380000114440918,57.41600036621094 C-25.98200035095215,54.505001068115234 -47.65700149536133,55.965999603271484 -58.678001403808594,77.91699981689453 C-60.077999114990234,80.70800018310547 -61.21500015258789,83.57499694824219 -62.082000732421875,86.4520034790039 C-68.03600311279297,106.20600128173828 -61.34199905395508,126.4520034790039 -41.111000061035156,125.98300170898438 C-17.933000564575195,125.44499969482422 48.68299865722656,110.56900024414062 44.15399932861328,79.36100006103516 C44.15399932861328,79.36100006103516 40.74100112915039,60.32699966430664 7.380000114440918,57.41600036621094z M28.17099952697754,-24.420000076293945 C15.559000015258789,-28.604000091552734 -37.027000427246094,-45.183998107910156 -47.36399841308594,-13.972999572753906 C-57.70100021362305,17.236000061035156 -38.125,44.38399887084961 3.2339999675750732,40.1510009765625 C3.2339999675750732,40.1510009765625 54.882999420166016,34.04199981689453 58.64799880981445,11.194999694824219 C62.4119987487793,-11.652000427246094 40.78200149536133,-20.236000061035156 28.17099952697754,-24.420000076293945z M50.00699996948242,-88.28500366210938 C39.36600112915039,-101.89800262451172 29.336999893188477,-111.3489990234375 21.041000366210938,-117.15899658203125 C10.880000114440918,-124.27400207519531 2.5920000076293945,-125.56700134277344 -4.859000205993652,-125.94999694824219 C-27.141000747680664,-127.09600067138672 -33.801998138427734,-103.41300201416016 -34.233001708984375,-102.30599975585938 C-39.1870002746582,-89.572998046875 -39.82400131225586,-75.2249984741211 -27.75200080871582,-64.18699645996094 C-11.416999816894531,-49.250999450683594 59.132999420166016,-22.68600082397461 63.797000885009766,-52.44499969482422 C63.797000885009766,-52.44499969482422 67.75399780273438,-65.58100128173828 50.00699996948242,-88.28500366210938z"></path></g></g><g clip-path="url(#__lottie_element_53)" transform="matrix(0.4999370872974396,-0.007931124418973923,0.007931124418973923,0.4999370872974396,433.6549072265625,330.2510070800781)" opacity="0" style="display: block;"><g transform="matrix(1,0,0,1,782.1240234375,525.1549682617188)" opacity="1" style="display: block;"><g opacity="1" transform="matrix(1,0,0,1,108.39900207519531,108.33799743652344)"><path fill="#FFFFFF" fill-opacity="1" d=" M15.402999877929688,-107.22699737548828 C-43.75600051879883,-115.72599792480469 -98.7969970703125,-74.54000091552734 -107.29100036621094,-15.413999557495117 C-115.78500366210938,43.71099853515625 -74.56500244140625,98.72799682617188 -15.404999732971191,107.22599792480469 C43.75400161743164,115.7249984741211 98.79499816894531,74.53800201416016 107.28900146484375,15.413000106811523 C115.78299713134766,-43.7130012512207 74.56300354003906,-98.72799682617188 15.402999877929688,-107.22699737548828z M64.20899963378906,-9.26200008392334 C64.20899963378906,-9.26200008392334 -12.87399959564209,48.41999816894531 -12.87399959564209,48.41999816894531 C-16.150999069213867,50.87300109863281 -20.187000274658203,51.9010009765625 -24.239999771118164,51.319000244140625 C-28.292999267578125,50.73699951171875 -31.875999450683594,48.612998962402344 -34.33100128173828,45.33700180053711 C-34.33100128173828,45.33700180053711 -63.75199890136719,6.068999767303467 -63.75199890136719,6.068999767303467 C-66.20700073242188,2.7929999828338623 -67.23799896240234,-1.2410000562667847 -66.65599822998047,-5.291999816894531 C-66.0739974975586,-9.343999862670898 -63.94900131225586,-12.923999786376953 -60.67100143432617,-15.376999855041504 C-57.39500045776367,-17.829999923706055 -53.358001708984375,-18.860000610351562 -49.30500030517578,-18.277999877929688 C-45.25199890136719,-17.695999145507812 -41.66699981689453,-15.571000099182129 -39.2140007019043,-12.293000221252441 C-39.2140007019043,-12.293000221252441 -18.98200035095215,14.708999633789062 -18.98200035095215,14.708999633789062 C-18.98200035095215,14.708999633789062 45.83000183105469,-33.790000915527344 45.83000183105469,-33.790000915527344 C49.108001708984375,-36.24300003051758 53.14500045776367,-37.27199935913086 57.196998596191406,-36.689998626708984 C61.25,-36.108001708984375 64.83399963378906,-33.98400115966797 67.28800201416016,-30.70800018310547 C72.35600280761719,-23.94300079345703 70.9749984741211,-14.324000358581543 64.20899963378906,-9.26200008392334z"></path></g></g><g transform="matrix(1,0,0,1,820.9199829101562,560.47802734375)" opacity="1" style="display: block;"><g opacity="1" transform="matrix(1,0,0,1,82.04399871826172,63.823001861572266)"><path fill="#BB4D58" fill-opacity="1" d=" M9.01200008392334,-62.72700119018555 C-36.02199935913086,-69.1969985961914 -76.56300354003906,-46.356998443603516 -81.54000091552734,-11.71399974822998 C-86.51699829101562,22.929000854492188 -54.04499816894531,56.25699996948242 -9.01099967956543,62.72700119018555 C36.02199935913086,69.1969985961914 76.56400299072266,46.358001708984375 81.54000091552734,11.71500015258789 C86.51699829101562,-22.929000854492188 54.04399871826172,-56.257999420166016 9.01200008392334,-62.72700119018555z"></path></g></g><g transform="matrix(1,0,0,1,783.6640014648438,514.4329833984375)" opacity="1" style="display: block;"><g opacity="1" transform="matrix(1,0,0,1,108.39800262451172,108.33899688720703)"><path fill="#FFFFFF" fill-opacity="1" d=" M15.404999732971191,-107.22699737548828 C-43.75400161743164,-115.72599792480469 -98.79399871826172,-74.53900146484375 -107.28900146484375,-15.413999557495117 C-115.78199768066406,43.71200180053711 -74.56300354003906,98.72899627685547 -15.404000282287598,107.22799682617188 C43.75600051879883,115.72599792480469 98.7979965209961,74.53800201416016 107.29199981689453,15.413000106811523 C115.78600311279297,-43.71200180053711 74.56500244140625,-98.72799682617188 15.404999732971191,-107.22699737548828z M64.21099853515625,-9.26099967956543 C64.21099853515625,-9.26099967956543 -12.871999740600586,48.42100143432617 -12.871999740600586,48.42100143432617 C-16.14900016784668,50.87300109863281 -20.184999465942383,51.90299987792969 -24.23699951171875,51.31999969482422 C-28.290000915527344,50.737998962402344 -31.875,48.61399841308594 -34.33000183105469,45.3380012512207 C-34.33000183105469,45.3380012512207 -63.75,6.068999767303467 -63.75,6.068999767303467 C-66.2040023803711,2.7929999828338623 -67.23699951171875,-1.2410000562667847 -66.65499877929688,-5.291999816894531 C-66.072998046875,-9.343999862670898 -63.94599914550781,-12.923999786376953 -60.66899871826172,-15.37600040435791 C-57.391998291015625,-17.82900047302246 -53.35599899291992,-18.860000610351562 -49.301998138427734,-18.277999877929688 C-45.249000549316406,-17.69499969482422 -41.66600036621094,-15.569999694824219 -39.2130012512207,-12.293000221252441 C-39.2130012512207,-12.293000221252441 -18.979000091552734,14.710000038146973 -18.979000091552734,14.710000038146973 C-18.979000091552734,14.710000038146973 45.832000732421875,-33.790000915527344 45.832000732421875,-33.790000915527344 C49.10900115966797,-36.242000579833984 53.145999908447266,-37.27199935913086 57.198001861572266,-36.68899917602539 C61.25199890136719,-36.106998443603516 64.83499908447266,-33.983001708984375 67.28900146484375,-30.707000732421875 C72.35700225830078,-23.94300079345703 70.97699737548828,-14.322999954223633 64.21099853515625,-9.26099967956543z"></path></g></g></g></g></svg>